<svg width="672" height="498" viewBox="0 0 672 498" fill="none" xmlns="http://www.w3.org/2000/svg">
<rect width="672" height="498" fill="#F5F5F5"/>
<path fill-rule="evenodd" clip-rule="evenodd" d="M608.185 324.325C605.944 322.082 604.469 319.189 603.974 316.057L591.004 233.908C589.103 221.869 580.106 212.176 568.243 209.384L356.448 159.55C345.603 156.999 335.859 166.742 338.411 177.587L388.245 389.381C391.037 401.246 400.729 410.243 412.769 412.144L494.918 425.114C498.049 425.609 500.944 427.082 503.185 429.325L521.647 447.787C533.363 459.503 552.358 459.503 564.074 447.787L626.647 385.214C638.363 373.498 638.363 354.503 626.647 342.787L608.185 324.325ZM576.188 236.247L589.159 318.397C590.147 324.659 593.095 330.448 597.578 334.931L616.04 353.393C621.899 359.252 621.899 368.749 616.04 374.608L553.468 437.18C547.609 443.038 538.112 443.038 532.255 437.18L513.791 418.718C509.308 414.235 503.519 411.287 497.257 410.299L415.108 397.327C409.088 396.377 404.242 391.879 402.846 385.946L356.276 188.022L451.574 283.319C447.648 289.249 445.361 296.357 445.361 304C445.361 324.712 462.151 341.5 482.861 341.5C503.572 341.5 520.361 324.712 520.361 304C520.361 283.289 503.572 266.5 482.861 266.5C475.217 266.5 468.109 268.787 462.181 272.713L366.882 177.415L564.806 223.986C570.739 225.382 575.237 230.228 576.188 236.247ZM482.861 326.5C495.287 326.5 505.361 316.427 505.361 304C505.361 291.574 495.287 281.5 482.861 281.5C470.434 281.5 460.361 291.574 460.361 304C460.361 316.427 470.434 326.5 482.861 326.5Z" fill="#E6E6E6"/>
</svg>
