<svg width="566" height="566" viewBox="0 0 566 566" fill="none" xmlns="http://www.w3.org/2000/svg">
<path d="M108.296 86.0633L317.904 145.808L318.281 145.934L318.627 146.028C379.598 161.813 424.501 217.187 424.501 283C424.595 298.816 422.52 311.677 417.866 325.984L412.049 344.222L425.57 357.743L484.214 416.419L417.552 483.112L359.442 425.034L345.764 411.356L327.369 417.425C312.622 422.362 299.352 424.594 283.001 424.5C214.735 424.5 157.695 376.107 144.425 311.74L144.174 310.577L143.859 309.413L86.253 108.483L240.425 262.655C237.469 268.85 235.834 275.705 235.834 283C235.834 309.036 256.965 330.167 283.001 330.167C309.037 330.167 330.168 309.036 330.168 283C330.168 256.964 309.037 235.833 283.001 235.833C275.706 235.833 268.851 237.468 262.656 240.424L108.264 86.0319L108.296 86.0633ZM417.52 527.575L528.708 416.419L447.833 335.544C453.084 318.972 455.945 301.301 455.945 283C455.945 202.502 400.98 134.897 326.551 115.59L31.4453 31.4443L113.61 318.092C129.866 396.766 199.516 455.944 283.001 455.944C301.93 455.944 320.168 452.894 337.211 447.266L417.52 527.575V527.575Z" fill="black"/>
</svg>
