<svg width="20" height="20" viewBox="0 0 20 20" fill="none" xmlns="http://www.w3.org/2000/svg">
<path fill-rule="evenodd" clip-rule="evenodd" d="M16.9624 11.1291C16.8379 11.0045 16.756 10.8438 16.7285 10.6698L16.0079 6.10595C15.9023 5.43709 15.4025 4.89861 14.7434 4.74352L2.97701 1.97496C2.37451 1.8332 1.8332 2.37451 1.97496 2.97701L4.74353 14.7434C4.89862 15.4025 5.4371 15.9024 6.10596 16.0079L10.6698 16.7285C10.8438 16.756 11.0046 16.8379 11.1291 16.9624L12.1548 17.9881C12.8057 18.639 13.8609 18.639 14.5118 17.9881L17.9882 14.5119C18.639 13.8609 18.639 12.8057 17.9882 12.1548L16.9624 11.1291ZM13.3333 16.8096L16.8096 13.3333L15.7839 12.3076C15.4103 11.934 15.1647 11.4516 15.0823 10.9298L14.3617 6.36589L5.44679 4.26827L8.92217 7.74361C9.24851 7.58744 9.61401 7.49997 10 7.49997C11.3807 7.49997 12.5 8.61927 12.5 9.99994C12.5 11.3807 11.3807 12.4999 10 12.4999C8.61926 12.4999 7.49998 11.3807 7.49998 9.99994C7.49998 9.61402 7.58744 9.24852 7.74362 8.92211L4.26826 5.44677L6.36589 14.3617L10.9298 15.0823C11.4517 15.1647 11.934 15.4103 12.3076 15.7839L13.3333 16.8096ZM10 10.8333C10.4603 10.8333 10.8333 10.4602 10.8333 9.99994C10.8333 9.53977 10.4603 9.16661 10 9.16661C9.53976 9.16661 9.16667 9.53977 9.16667 9.99994C9.16667 10.4602 9.53976 10.8333 10 10.8333Z" fill="white"/>
</svg>
