<svg width="160" height="160" viewBox="0 0 160 160" fill="none" xmlns="http://www.w3.org/2000/svg">
<rect width="160" height="160" fill="#807D7B"/>
<path d="M60 115.172C54.2812 115.172 49.3594 113.75 45.2344 110.906C41.1094 108.062 37.9375 104.031 35.7188 98.8125C33.5312 93.5625 32.4375 87.3594 32.4375 80.2031V80.1094C32.4375 72.9219 33.5312 66.7188 35.7188 61.5C37.9375 56.2812 41.1094 52.2656 45.2344 49.4531C49.3594 46.6094 54.2812 45.1875 60 45.1875C65.7188 45.1875 70.625 46.6094 74.7188 49.4531C78.8438 52.2656 82.0156 56.2812 84.2344 61.5C86.4531 66.7188 87.5625 72.9219 87.5625 80.1094V80.2031C87.5625 87.3594 86.4531 93.5625 84.2344 98.8125C82.0156 104.031 78.8438 108.062 74.7188 110.906C70.625 113.75 65.7188 115.172 60 115.172ZM60 103.828C62.8125 103.828 65.2031 102.891 67.1719 101.016C69.1406 99.1406 70.6406 96.4375 71.6719 92.9062C72.7344 89.375 73.2656 85.1406 73.2656 80.2031V80.1094C73.2656 75.1406 72.7344 70.9062 71.6719 67.4062C70.6406 63.875 69.1406 61.1875 67.1719 59.3438C65.2031 57.4688 62.8125 56.5312 60 56.5312C57.1875 56.5312 54.7812 57.4688 52.7812 59.3438C50.8125 61.1875 49.3125 63.875 48.2812 67.4062C47.25 70.9062 46.7344 75.1406 46.7344 80.1094V80.2031C46.7344 85.1406 47.25 89.375 48.2812 92.9062C49.3125 96.4375 50.8125 99.1406 52.7812 101.016C54.7812 102.891 57.1875 103.828 60 103.828ZM106.974 114V59.3438H106.693L89.4431 71.0625V58.5L106.927 46.3594H120.99V114H106.974Z" fill="black" fill-opacity="0.3"/>
</svg>
