<svg width="160" height="160" viewBox="0 0 160 160" fill="none" xmlns="http://www.w3.org/2000/svg">
<rect width="160" height="160" fill="#5551FF"/>
<path d="M54 115.172C48.2812 115.172 43.3594 113.75 39.2344 110.906C35.1094 108.062 31.9375 104.031 29.7188 98.8125C27.5312 93.5625 26.4375 87.3594 26.4375 80.2031V80.1094C26.4375 72.9219 27.5312 66.7188 29.7188 61.5C31.9375 56.2812 35.1094 52.2656 39.2344 49.4531C43.3594 46.6094 48.2812 45.1875 54 45.1875C59.7188 45.1875 64.625 46.6094 68.7188 49.4531C72.8438 52.2656 76.0156 56.2812 78.2344 61.5C80.4531 66.7188 81.5625 72.9219 81.5625 80.1094V80.2031C81.5625 87.3594 80.4531 93.5625 78.2344 98.8125C76.0156 104.031 72.8438 108.062 68.7188 110.906C64.625 113.75 59.7188 115.172 54 115.172ZM54 103.828C56.8125 103.828 59.2031 102.891 61.1719 101.016C63.1406 99.1406 64.6406 96.4375 65.6719 92.9062C66.7344 89.375 67.2656 85.1406 67.2656 80.2031V80.1094C67.2656 75.1406 66.7344 70.9062 65.6719 67.4062C64.6406 63.875 63.1406 61.1875 61.1719 59.3438C59.2031 57.4688 56.8125 56.5312 54 56.5312C51.1875 56.5312 48.7812 57.4688 46.7812 59.3438C44.8125 61.1875 43.3125 63.875 42.2812 67.4062C41.25 70.9062 40.7344 75.1406 40.7344 80.1094V80.2031C40.7344 85.1406 41.25 89.375 42.2812 92.9062C43.3125 96.4375 44.8125 99.1406 46.7812 101.016C48.7812 102.891 51.1875 103.828 54 103.828ZM84.0525 114V104.297L107.959 81.9375C110.896 79.2188 113.115 76.9531 114.615 75.1406C116.115 73.3281 117.131 71.7031 117.662 70.2656C118.224 68.8281 118.506 67.3281 118.506 65.7656V65.6719C118.506 63.8281 118.068 62.2031 117.193 60.7969C116.318 59.3594 115.099 58.2344 113.537 57.4219C112.006 56.6094 110.24 56.2031 108.24 56.2031C105.927 56.2031 103.896 56.6719 102.146 57.6094C100.396 58.5156 99.0212 59.7812 98.0212 61.4062C97.0212 63 96.49 64.8125 96.4275 66.8438L96.3806 67.2656H83.2556V66.8906C83.2556 62.6406 84.3337 58.8906 86.49 55.6406C88.6462 52.3594 91.5994 49.7969 95.3494 47.9531C99.1306 46.1094 103.396 45.1875 108.146 45.1875C112.927 45.1875 117.131 46.0312 120.756 47.7188C124.381 49.375 127.209 51.6875 129.24 54.6562C131.271 57.625 132.287 61.0312 132.287 64.875V64.9688C132.287 67.6875 131.787 70.2188 130.787 72.5625C129.818 74.875 128.209 77.3438 125.959 79.9688C123.709 82.5625 120.631 85.6562 116.724 89.25L97.1306 107.109L102.568 97.5938V107.109L97.1775 102.75H133.224V114H84.0525Z" fill="black" fill-opacity="0.3"/>
</svg>
