<svg width="160" height="160" viewBox="0 0 160 160" fill="none" xmlns="http://www.w3.org/2000/svg">
<rect width="160" height="160" fill="#D3A27E"/>
<path d="M52.5 115.172C46.7812 115.172 41.8594 113.75 37.7344 110.906C33.6094 108.062 30.4375 104.031 28.2188 98.8125C26.0312 93.5625 24.9375 87.3594 24.9375 80.2031V80.1094C24.9375 72.9219 26.0312 66.7188 28.2188 61.5C30.4375 56.2812 33.6094 52.2656 37.7344 49.4531C41.8594 46.6094 46.7812 45.1875 52.5 45.1875C58.2188 45.1875 63.125 46.6094 67.2188 49.4531C71.3438 52.2656 74.5156 56.2812 76.7344 61.5C78.9531 66.7188 80.0625 72.9219 80.0625 80.1094V80.2031C80.0625 87.3594 78.9531 93.5625 76.7344 98.8125C74.5156 104.031 71.3438 108.062 67.2188 110.906C63.125 113.75 58.2188 115.172 52.5 115.172ZM52.5 103.828C55.3125 103.828 57.7031 102.891 59.6719 101.016C61.6406 99.1406 63.1406 96.4375 64.1719 92.9062C65.2344 89.375 65.7656 85.1406 65.7656 80.2031V80.1094C65.7656 75.1406 65.2344 70.9062 64.1719 67.4062C63.1406 63.875 61.6406 61.1875 59.6719 59.3438C57.7031 57.4688 55.3125 56.5312 52.5 56.5312C49.6875 56.5312 47.2812 57.4688 45.2812 59.3438C43.3125 61.1875 41.8125 63.875 40.7812 67.4062C39.75 70.9062 39.2344 75.1406 39.2344 80.1094V80.2031C39.2344 85.1406 39.75 89.375 40.7812 92.9062C41.8125 96.4375 43.3125 99.1406 45.2812 101.016C47.2812 102.891 49.6875 103.828 52.5 103.828ZM108.193 115.172C103.068 115.172 98.5994 114.344 94.7869 112.688C90.9744 111 87.9431 108.672 85.6931 105.703C83.4744 102.734 82.2087 99.3125 81.8962 95.4375L81.8494 94.8281H95.3494L95.4431 95.3438C95.7244 97.75 96.99 99.7656 99.24 101.391C101.521 102.984 104.49 103.781 108.146 103.781C110.584 103.781 112.693 103.391 114.474 102.609C116.256 101.797 117.631 100.688 118.599 99.2812C119.599 97.8438 120.099 96.2031 120.099 94.3594V94.2656C120.099 91.0156 118.959 88.5312 116.677 86.8125C114.396 85.0938 111.209 84.2344 107.115 84.2344H99.3806V74.1562H106.927C109.302 74.1562 111.365 73.7656 113.115 72.9844C114.865 72.2031 116.209 71.125 117.146 69.75C118.115 68.3438 118.599 66.7344 118.599 64.9219V64.8281C118.599 62.9844 118.177 61.4219 117.334 60.1406C116.521 58.8281 115.318 57.8281 113.724 57.1406C112.162 56.4219 110.271 56.0625 108.052 56.0625C105.865 56.0625 103.927 56.4219 102.24 57.1406C100.552 57.8594 99.2087 58.875 98.2087 60.1875C97.2087 61.4688 96.5994 62.9844 96.3806 64.7344L96.3337 65.1562H83.3494L83.3962 64.5938C83.7087 60.6562 84.9119 57.25 87.0056 54.375C89.1306 51.4688 91.99 49.2188 95.5837 47.625C99.1775 46 103.334 45.1875 108.052 45.1875C112.927 45.1875 117.146 45.9375 120.709 47.4375C124.302 48.9062 127.084 50.9688 129.052 53.625C131.021 56.2812 132.006 59.3906 132.006 62.9531V63.0469C132.006 65.8594 131.381 68.3281 130.131 70.4531C128.881 72.5781 127.177 74.3281 125.021 75.7031C122.896 77.0781 120.521 78.0469 117.896 78.6094V78.8906C122.927 79.3594 126.943 80.9844 129.943 83.7656C132.974 86.5469 134.49 90.2344 134.49 94.8281V94.9219C134.49 98.9531 133.396 102.484 131.209 105.516C129.021 108.547 125.959 110.922 122.021 112.641C118.084 114.328 113.474 115.172 108.193 115.172Z" fill="black" fill-opacity="0.3"/>
</svg>
