<svg width="160" height="160" viewBox="0 0 160 160" fill="none" xmlns="http://www.w3.org/2000/svg">
<rect width="160" height="160" fill="#F9BBCB"/>
<path d="M51.5 115.172C45.7812 115.172 40.8594 113.75 36.7344 110.906C32.6094 108.062 29.4375 104.031 27.2188 98.8125C25.0312 93.5625 23.9375 87.3594 23.9375 80.2031V80.1094C23.9375 72.9219 25.0312 66.7188 27.2188 61.5C29.4375 56.2812 32.6094 52.2656 36.7344 49.4531C40.8594 46.6094 45.7812 45.1875 51.5 45.1875C57.2188 45.1875 62.125 46.6094 66.2188 49.4531C70.3438 52.2656 73.5156 56.2812 75.7344 61.5C77.9531 66.7188 79.0625 72.9219 79.0625 80.1094V80.2031C79.0625 87.3594 77.9531 93.5625 75.7344 98.8125C73.5156 104.031 70.3438 108.062 66.2188 110.906C62.125 113.75 57.2188 115.172 51.5 115.172ZM51.5 103.828C54.3125 103.828 56.7031 102.891 58.6719 101.016C60.6406 99.1406 62.1406 96.4375 63.1719 92.9062C64.2344 89.375 64.7656 85.1406 64.7656 80.2031V80.1094C64.7656 75.1406 64.2344 70.9062 63.1719 67.4062C62.1406 63.875 60.6406 61.1875 58.6719 59.3438C56.7031 57.4688 54.3125 56.5312 51.5 56.5312C48.6875 56.5312 46.2812 57.4688 44.2812 59.3438C42.3125 61.1875 40.8125 63.875 39.7812 67.4062C38.75 70.9062 38.2344 75.1406 38.2344 80.1094V80.2031C38.2344 85.1406 38.75 89.375 39.7812 92.9062C40.8125 96.4375 42.3125 99.1406 44.2812 101.016C46.2812 102.891 48.6875 103.828 51.5 103.828ZM114.271 114V101.578H80.615V89.7656C82.4275 86.8906 84.24 84 86.0525 81.0938C87.865 78.1875 89.6775 75.2969 91.49 72.4219C93.3025 69.5156 95.0994 66.625 96.8806 63.75C98.6931 60.8438 100.506 57.9375 102.318 55.0312C104.131 52.125 105.943 49.2344 107.756 46.3594H127.724V90.2812H136.631V101.578H127.724V114H114.271ZM92.9431 90.6562H114.552V56.5781H114.224C112.787 58.8281 111.365 61.0781 109.959 63.3281C108.552 65.5781 107.131 67.8281 105.693 70.0781C104.287 72.2969 102.865 74.5469 101.427 76.8281C100.021 79.0781 98.5994 81.3281 97.1619 83.5781C95.7556 85.7969 94.3494 88.0312 92.9431 90.2812V90.6562Z" fill="black" fill-opacity="0.3"/>
</svg>
