<svg width="160" height="160" viewBox="0 0 160 160" fill="none" xmlns="http://www.w3.org/2000/svg">
<rect width="160" height="160" fill="#CDE998"/>
<path d="M53 115.172C47.2812 115.172 42.3594 113.75 38.2344 110.906C34.1094 108.062 30.9375 104.031 28.7188 98.8125C26.5312 93.5625 25.4375 87.3594 25.4375 80.2031V80.1094C25.4375 72.9219 26.5312 66.7188 28.7188 61.5C30.9375 56.2812 34.1094 52.2656 38.2344 49.4531C42.3594 46.6094 47.2812 45.1875 53 45.1875C58.7188 45.1875 63.625 46.6094 67.7188 49.4531C71.8438 52.2656 75.0156 56.2812 77.2344 61.5C79.4531 66.7188 80.5625 72.9219 80.5625 80.1094V80.2031C80.5625 87.3594 79.4531 93.5625 77.2344 98.8125C75.0156 104.031 71.8438 108.062 67.7188 110.906C63.625 113.75 58.7188 115.172 53 115.172ZM53 103.828C55.8125 103.828 58.2031 102.891 60.1719 101.016C62.1406 99.1406 63.6406 96.4375 64.6719 92.9062C65.7344 89.375 66.2656 85.1406 66.2656 80.2031V80.1094C66.2656 75.1406 65.7344 70.9062 64.6719 67.4062C63.6406 63.875 62.1406 61.1875 60.1719 59.3438C58.2031 57.4688 55.8125 56.5312 53 56.5312C50.1875 56.5312 47.7812 57.4688 45.7812 59.3438C43.8125 61.1875 42.3125 63.875 41.2812 67.4062C40.25 70.9062 39.7344 75.1406 39.7344 80.1094V80.2031C39.7344 85.1406 40.25 89.375 41.2812 92.9062C42.3125 96.4375 43.8125 99.1406 45.7812 101.016C47.7812 102.891 50.1875 103.828 53 103.828ZM109.021 115.172C104.115 115.172 99.8181 114.297 96.1306 112.547C92.4431 110.797 89.5212 108.422 87.365 105.422C85.2087 102.422 83.99 99.0469 83.7087 95.2969L83.6619 94.5938H96.74L96.8337 94.9219C97.1775 96.6094 97.8962 98.1406 98.99 99.5156C100.115 100.891 101.537 101.984 103.256 102.797C104.974 103.578 106.912 103.969 109.068 103.969C111.537 103.969 113.709 103.453 115.584 102.422C117.49 101.359 118.974 99.9062 120.037 98.0625C121.131 96.2188 121.677 94.0938 121.677 91.6875V91.5938C121.677 89.2188 121.131 87.125 120.037 85.3125C118.974 83.4688 117.49 82.0312 115.584 81C113.709 79.9688 111.552 79.4531 109.115 79.4531C107.396 79.4531 105.802 79.7031 104.334 80.2031C102.865 80.6719 101.552 81.375 100.396 82.3125C99.74 82.8438 99.1306 83.4219 98.5681 84.0469C98.0056 84.6719 97.5369 85.3438 97.1619 86.0625H84.8337L87.9275 46.3594H131.099V57.6094H99.1775L97.5369 76.6406H97.8181C99.2244 74.3594 101.256 72.5781 103.912 71.2969C106.568 69.9844 109.615 69.3281 113.052 69.3281C117.365 69.3281 121.177 70.2812 124.49 72.1875C127.802 74.0625 130.412 76.6562 132.318 79.9688C134.224 83.2812 135.177 87.0625 135.177 91.3125V91.4062C135.177 96.125 134.068 100.266 131.849 103.828C129.662 107.391 126.599 110.172 122.662 112.172C118.724 114.172 114.177 115.172 109.021 115.172Z" fill="black" fill-opacity="0.3"/>
</svg>
