<svg width="160" height="160" viewBox="0 0 160 160" fill="none" xmlns="http://www.w3.org/2000/svg">
<rect width="160" height="160" fill="#F4E9FF"/>
<path d="M51.5 115.172C45.7812 115.172 40.8594 113.75 36.7344 110.906C32.6094 108.062 29.4375 104.031 27.2188 98.8125C25.0312 93.5625 23.9375 87.3594 23.9375 80.2031V80.1094C23.9375 72.9219 25.0312 66.7188 27.2188 61.5C29.4375 56.2812 32.6094 52.2656 36.7344 49.4531C40.8594 46.6094 45.7812 45.1875 51.5 45.1875C57.2188 45.1875 62.125 46.6094 66.2188 49.4531C70.3438 52.2656 73.5156 56.2812 75.7344 61.5C77.9531 66.7188 79.0625 72.9219 79.0625 80.1094V80.2031C79.0625 87.3594 77.9531 93.5625 75.7344 98.8125C73.5156 104.031 70.3438 108.062 66.2188 110.906C62.125 113.75 57.2188 115.172 51.5 115.172ZM51.5 103.828C54.3125 103.828 56.7031 102.891 58.6719 101.016C60.6406 99.1406 62.1406 96.4375 63.1719 92.9062C64.2344 89.375 64.7656 85.1406 64.7656 80.2031V80.1094C64.7656 75.1406 64.2344 70.9062 63.1719 67.4062C62.1406 63.875 60.6406 61.1875 58.6719 59.3438C56.7031 57.4688 54.3125 56.5312 51.5 56.5312C48.6875 56.5312 46.2812 57.4688 44.2812 59.3438C42.3125 61.1875 40.8125 63.875 39.7812 67.4062C38.75 70.9062 38.2344 75.1406 38.2344 80.1094V80.2031C38.2344 85.1406 38.75 89.375 39.7812 92.9062C40.8125 96.4375 42.3125 99.1406 44.2812 101.016C46.2812 102.891 48.6875 103.828 51.5 103.828ZM109.302 115.172C105.209 115.172 101.443 114.453 98.0056 113.016C94.5994 111.578 91.615 109.438 89.0525 106.594C86.5212 103.719 84.5525 100.141 83.1462 95.8594C81.7712 91.5469 81.0837 86.5156 81.0837 80.7656V80.6719C81.0837 73.2969 82.2244 66.9531 84.5056 61.6406C86.7869 56.3281 90.0369 52.2656 94.2556 49.4531C98.5056 46.6094 103.568 45.1875 109.443 45.1875C113.818 45.1875 117.756 45.9688 121.256 47.5312C124.756 49.0625 127.646 51.1875 129.927 53.9062C132.24 56.625 133.724 59.7188 134.381 63.1875L134.474 63.6562H120.506L120.365 63.2344C119.802 61.8594 119.006 60.6719 117.974 59.6719C116.974 58.6406 115.756 57.8438 114.318 57.2812C112.881 56.6875 111.24 56.3906 109.396 56.3906C106.115 56.3906 103.412 57.3438 101.287 59.25C99.1931 61.1562 97.615 63.7188 96.5525 66.9375C95.49 70.1562 94.865 73.7656 94.6775 77.7656C94.6462 78.2344 94.615 78.7031 94.5837 79.1719C94.5837 79.6406 94.5837 80.1094 94.5837 80.5781L96.74 91.8281C96.74 94.0781 97.2869 96.125 98.3806 97.9688C99.4744 99.7812 100.959 101.234 102.834 102.328C104.709 103.391 106.802 103.922 109.115 103.922C111.427 103.922 113.521 103.391 115.396 102.328C117.271 101.266 118.771 99.8438 119.896 98.0625C121.021 96.25 121.584 94.2344 121.584 92.0156V91.9219C121.584 89.5781 121.037 87.5 119.943 85.6875C118.881 83.875 117.412 82.4688 115.537 81.4688C113.693 80.4375 111.599 79.9219 109.256 79.9219C106.912 79.9219 104.787 80.4375 102.881 81.4688C100.974 82.4688 99.4744 83.8594 98.3806 85.6406C97.2869 87.4219 96.74 89.4531 96.74 91.7344V91.8281H93.8806V80.3438H94.865C95.7712 78.25 97.0837 76.3906 98.8025 74.7656C100.552 73.1406 102.646 71.8594 105.084 70.9219C107.552 69.9531 110.302 69.4688 113.334 69.4688C117.709 69.4688 121.537 70.4219 124.818 72.3281C128.131 74.2031 130.709 76.7969 132.552 80.1094C134.427 83.4219 135.365 87.1875 135.365 91.4062V91.5C135.365 96.125 134.24 100.219 131.99 103.781C129.74 107.312 126.646 110.094 122.709 112.125C118.802 114.156 114.334 115.172 109.302 115.172Z" fill="black" fill-opacity="0.3"/>
</svg>
