<svg width="160" height="160" viewBox="0 0 160 160" fill="none" xmlns="http://www.w3.org/2000/svg">
<rect width="160" height="160" fill="#FF847D"/>
<path d="M56 115.172C50.2812 115.172 45.3594 113.75 41.2344 110.906C37.1094 108.062 33.9375 104.031 31.7188 98.8125C29.5312 93.5625 28.4375 87.3594 28.4375 80.2031V80.1094C28.4375 72.9219 29.5312 66.7188 31.7188 61.5C33.9375 56.2812 37.1094 52.2656 41.2344 49.4531C45.3594 46.6094 50.2812 45.1875 56 45.1875C61.7188 45.1875 66.625 46.6094 70.7188 49.4531C74.8438 52.2656 78.0156 56.2812 80.2344 61.5C82.4531 66.7188 83.5625 72.9219 83.5625 80.1094V80.2031C83.5625 87.3594 82.4531 93.5625 80.2344 98.8125C78.0156 104.031 74.8438 108.062 70.7188 110.906C66.625 113.75 61.7188 115.172 56 115.172ZM56 103.828C58.8125 103.828 61.2031 102.891 63.1719 101.016C65.1406 99.1406 66.6406 96.4375 67.6719 92.9062C68.7344 89.375 69.2656 85.1406 69.2656 80.2031V80.1094C69.2656 75.1406 68.7344 70.9062 67.6719 67.4062C66.6406 63.875 65.1406 61.1875 63.1719 59.3438C61.2031 57.4688 58.8125 56.5312 56 56.5312C53.1875 56.5312 50.7812 57.4688 48.7812 59.3438C46.8125 61.1875 45.3125 63.875 44.2812 67.4062C43.25 70.9062 42.7344 75.1406 42.7344 80.1094V80.2031C42.7344 85.1406 43.25 89.375 44.2812 92.9062C45.3125 96.4375 46.8125 99.1406 48.7812 101.016C50.7812 102.891 53.1875 103.828 56 103.828ZM88.4431 114L117.552 57.8906V57.6094H83.1462V46.3594H131.521V57.75L103.302 114H88.4431Z" fill="black" fill-opacity="0.3"/>
</svg>
