<svg width="160" height="160" viewBox="0 0 160 160" fill="none" xmlns="http://www.w3.org/2000/svg">
<rect width="160" height="160" fill="#FF9500"/>
<path d="M51.5 115.172C45.7812 115.172 40.8594 113.75 36.7344 110.906C32.6094 108.062 29.4375 104.031 27.2188 98.8125C25.0312 93.5625 23.9375 87.3594 23.9375 80.2031V80.1094C23.9375 72.9219 25.0312 66.7188 27.2188 61.5C29.4375 56.2812 32.6094 52.2656 36.7344 49.4531C40.8594 46.6094 45.7812 45.1875 51.5 45.1875C57.2188 45.1875 62.125 46.6094 66.2188 49.4531C70.3438 52.2656 73.5156 56.2812 75.7344 61.5C77.9531 66.7188 79.0625 72.9219 79.0625 80.1094V80.2031C79.0625 87.3594 77.9531 93.5625 75.7344 98.8125C73.5156 104.031 70.3438 108.062 66.2188 110.906C62.125 113.75 57.2188 115.172 51.5 115.172ZM51.5 103.828C54.3125 103.828 56.7031 102.891 58.6719 101.016C60.6406 99.1406 62.1406 96.4375 63.1719 92.9062C64.2344 89.375 64.7656 85.1406 64.7656 80.2031V80.1094C64.7656 75.1406 64.2344 70.9062 63.1719 67.4062C62.1406 63.875 60.6406 61.1875 58.6719 59.3438C56.7031 57.4688 54.3125 56.5312 51.5 56.5312C48.6875 56.5312 46.2812 57.4688 44.2812 59.3438C42.3125 61.1875 40.8125 63.875 39.7812 67.4062C38.75 70.9062 38.2344 75.1406 38.2344 80.1094V80.2031C38.2344 85.1406 38.75 89.375 39.7812 92.9062C40.8125 96.4375 42.3125 99.1406 44.2812 101.016C46.2812 102.891 48.6875 103.828 51.5 103.828ZM108.412 115.172C103.037 115.172 98.3025 114.344 94.2087 112.688C90.115 111.031 86.9119 108.734 84.5994 105.797C82.2869 102.828 81.1306 99.4062 81.1306 95.5312V95.4375C81.1306 92.5 81.8025 89.8594 83.1462 87.5156C84.49 85.1719 86.3337 83.2188 88.6775 81.6562C91.0212 80.0938 93.7087 79.0156 96.74 78.4219V78.1406C92.8337 77.1719 89.6619 75.375 87.2244 72.75C84.8181 70.0938 83.615 66.9531 83.615 63.3281V63.2344C83.615 59.7344 84.6619 56.6406 86.7556 53.9531C88.8494 51.2344 91.7556 49.0938 95.4744 47.5312C99.2244 45.9688 103.537 45.1875 108.412 45.1875C113.287 45.1875 117.584 45.9688 121.302 47.5312C125.021 49.0938 127.927 51.2344 130.021 53.9531C132.146 56.6406 133.209 59.7344 133.209 63.2344V63.3281C133.209 66.9531 131.99 70.0938 129.552 72.75C127.146 75.375 123.99 77.1719 120.084 78.1406V78.4219C123.115 79.0156 125.802 80.0938 128.146 81.6562C130.49 83.2188 132.318 85.1719 133.631 87.5156C134.974 89.8594 135.646 92.5 135.646 95.4375V95.5312C135.646 99.4062 134.49 102.828 132.177 105.797C129.896 108.734 126.709 111.031 122.615 112.688C118.521 114.344 113.787 115.172 108.412 115.172ZM108.412 104.859C110.881 104.859 113.052 104.422 114.927 103.547C116.802 102.672 118.271 101.453 119.334 99.8906C120.427 98.3281 120.974 96.5625 120.974 94.5938V94.5C120.974 92.5 120.443 90.7188 119.381 89.1562C118.318 87.5938 116.834 86.375 114.927 85.5C113.052 84.5938 110.881 84.1406 108.412 84.1406C105.912 84.1406 103.709 84.5938 101.802 85.5C99.9275 86.375 98.4587 87.5938 97.3962 89.1562C96.3337 90.7188 95.8025 92.5 95.8025 94.5V94.5938C95.8025 96.5625 96.3337 98.3281 97.3962 99.8906C98.49 101.453 99.9744 102.672 101.849 103.547C103.756 104.422 105.943 104.859 108.412 104.859ZM108.412 73.875C110.537 73.875 112.412 73.4844 114.037 72.7031C115.662 71.9219 116.927 70.8438 117.834 69.4688C118.74 68.0625 119.193 66.4531 119.193 64.6406V64.5469C119.193 62.7344 118.724 61.1406 117.787 59.7656C116.881 58.3906 115.615 57.3281 113.99 56.5781C112.365 55.7969 110.506 55.4062 108.412 55.4062C106.287 55.4062 104.412 55.7969 102.787 56.5781C101.162 57.3281 99.8806 58.3906 98.9431 59.7656C98.0369 61.1406 97.5837 62.7344 97.5837 64.5469V64.6406C97.5837 66.4531 98.0369 68.0625 98.9431 69.4688C99.8806 70.8438 101.162 71.9219 102.787 72.7031C104.412 73.4844 106.287 73.875 108.412 73.875Z" fill="black" fill-opacity="0.3"/>
</svg>
