<svg width="160" height="160" viewBox="0 0 160 160" fill="none" xmlns="http://www.w3.org/2000/svg">
<rect width="160" height="160" fill="#FFE359"/>
<path d="M51.5 115.172C45.7812 115.172 40.8594 113.75 36.7344 110.906C32.6094 108.062 29.4375 104.031 27.2188 98.8125C25.0312 93.5625 23.9375 87.3594 23.9375 80.2031V80.1094C23.9375 72.9219 25.0312 66.7188 27.2188 61.5C29.4375 56.2812 32.6094 52.2656 36.7344 49.4531C40.8594 46.6094 45.7812 45.1875 51.5 45.1875C57.2188 45.1875 62.125 46.6094 66.2188 49.4531C70.3438 52.2656 73.5156 56.2812 75.7344 61.5C77.9531 66.7188 79.0625 72.9219 79.0625 80.1094V80.2031C79.0625 87.3594 77.9531 93.5625 75.7344 98.8125C73.5156 104.031 70.3438 108.062 66.2188 110.906C62.125 113.75 57.2188 115.172 51.5 115.172ZM51.5 103.828C54.3125 103.828 56.7031 102.891 58.6719 101.016C60.6406 99.1406 62.1406 96.4375 63.1719 92.9062C64.2344 89.375 64.7656 85.1406 64.7656 80.2031V80.1094C64.7656 75.1406 64.2344 70.9062 63.1719 67.4062C62.1406 63.875 60.6406 61.1875 58.6719 59.3438C56.7031 57.4688 54.3125 56.5312 51.5 56.5312C48.6875 56.5312 46.2812 57.4688 44.2812 59.3438C42.3125 61.1875 40.8125 63.875 39.7812 67.4062C38.75 70.9062 38.2344 75.1406 38.2344 80.1094V80.2031C38.2344 85.1406 38.75 89.375 39.7812 92.9062C40.8125 96.4375 42.3125 99.1406 44.2812 101.016C46.2812 102.891 48.6875 103.828 51.5 103.828ZM107.802 45.1875C111.896 45.1875 115.646 45.9062 119.052 47.3438C122.49 48.75 125.474 50.8906 128.006 53.7656C130.568 56.6406 132.537 60.2344 133.912 64.5469C135.318 68.8281 136.021 73.8281 136.021 79.5469V79.6406C136.021 87.0469 134.881 93.4062 132.599 98.7188C130.318 104 127.068 108.062 122.849 110.906C118.631 113.75 113.568 115.172 107.662 115.172C103.318 115.172 99.3806 114.391 95.8494 112.828C92.3494 111.266 89.4587 109.141 87.1775 106.453C84.8962 103.734 83.4119 100.625 82.7244 97.125L82.6306 96.7031H96.5994L96.74 97.0781C97.3025 98.4219 98.0837 99.6094 99.0837 100.641C100.115 101.672 101.349 102.484 102.787 103.078C104.224 103.641 105.865 103.922 107.709 103.922C111.021 103.922 113.724 102.969 115.818 101.062C117.912 99.1562 119.49 96.5938 120.552 93.375C121.646 90.125 122.271 86.5156 122.427 82.5469C122.459 82.0781 122.474 81.625 122.474 81.1875C122.506 80.7188 122.521 80.25 122.521 79.7812L120.365 68.5312C120.365 66.25 119.818 64.2031 118.724 62.3906C117.631 60.5469 116.146 59.0938 114.271 58.0312C112.396 56.9688 110.302 56.4375 107.99 56.4375C105.677 56.4375 103.584 56.9688 101.709 58.0312C99.8337 59.0625 98.3337 60.4844 97.2087 62.2969C96.0837 64.0781 95.5212 66.0938 95.5212 68.3438V68.4375C95.5212 70.7812 96.0525 72.8594 97.115 74.6719C98.2087 76.4531 99.6775 77.8594 101.521 78.8906C103.396 79.8906 105.506 80.3906 107.849 80.3906C110.224 80.3906 112.349 79.8906 114.224 78.8906C116.131 77.8906 117.631 76.5 118.724 74.7188C119.818 72.9375 120.365 70.8906 120.365 68.5781V68.5312H123.224V79.9688H122.24C121.334 82.0625 120.021 83.9375 118.302 85.5938C116.584 87.2188 114.49 88.5 112.021 89.4375C109.584 90.375 106.834 90.8438 103.771 90.8438C99.4275 90.8438 95.5994 89.9062 92.2869 88.0312C88.9744 86.125 86.3806 83.5156 84.5056 80.2031C82.6619 76.8906 81.74 73.125 81.74 68.9062V68.8125C81.74 64.2188 82.865 60.1406 85.115 56.5781C87.365 53.0156 90.4431 50.2344 94.3494 48.2344C98.2869 46.2031 102.771 45.1875 107.802 45.1875Z" fill="black" fill-opacity="0.3"/>
</svg>
