<svg width="140" height="148" viewBox="0 0 140 148" fill="none" xmlns="http://www.w3.org/2000/svg">
<rect x="41.5596" y="134.292" width="100.741" height="96.193" rx="12" transform="rotate(-89.5338 41.5596 134.292)" fill="#CB9FD2"/>
<g filter="url(#filter0_bi_269_524)">
<path fill-rule="evenodd" clip-rule="evenodd" d="M111.115 45.9143C111.115 20.5564 90.5588 -8.98552e-07 65.2011 -2.00697e-06C39.8435 -3.11539e-06 19.287 20.5564 19.287 45.9143C19.287 56.6441 22.9731 66.521 29.1396 74.3361L3.08197 100.394C0.972623 102.504 0.972623 105.923 3.08197 108.033C5.19132 110.143 8.61165 110.143 10.721 108.033L36.7786 81.9752C44.5943 88.1422 54.4707 91.8283 65.2011 91.8283C90.5588 91.8283 111.115 71.2718 111.115 45.9143ZM65.2011 10.8033C84.5923 10.8033 100.312 26.5229 100.312 45.9143C100.312 65.3051 84.5923 81.025 65.2011 81.025C55.504 81.025 46.7339 77.1007 40.374 70.7408C34.0141 64.3814 30.0903 55.6113 30.0903 45.9143C30.0903 26.5229 45.8097 10.8033 65.2011 10.8033Z" fill="#FF4A00" fill-opacity="0.4"/>
<path d="M29.3164 74.5129L29.4735 74.3558L29.3359 74.1813C23.2028 66.4087 19.537 56.5859 19.537 45.9143C19.537 20.6945 39.9816 0.249997 65.2011 0.249998C90.4207 0.249999 110.865 20.6945 110.865 45.9143C110.865 71.1337 90.4207 91.5783 65.2011 91.5783C54.5289 91.5783 44.7067 87.9124 36.9335 81.7789L36.759 81.6412L36.6018 81.7984L10.5442 107.857C8.5325 109.868 5.27046 109.868 3.25877 107.857C1.24702 105.844 1.24702 102.583 3.25875 100.57L29.3164 74.5129ZM100.562 45.9143C100.562 26.3848 84.7303 10.5533 65.2011 10.5533C45.6716 10.5533 29.8403 26.3848 29.8403 45.9143C29.8403 55.6803 33.7923 64.5132 40.1972 70.9176C46.6021 77.3225 55.4351 81.275 65.2011 81.275C84.7303 81.275 100.562 65.4432 100.562 45.9143Z" stroke="#FF00E8" stroke-opacity="0.8" stroke-width="0.5"/>
</g>
<path d="M104.531 89.0156H111.422L110.672 104.578H105.281L104.531 89.0156ZM104.531 120.188L105.281 104.578H110.672L111.422 120.188H104.531ZM92.8594 99.4688L96.375 94.0781L109.312 102.422L106.594 106.734L92.8594 99.4688ZM123.094 99.4688L109.312 106.734L106.641 102.422L119.578 94.0781L123.094 99.4688ZM123.047 109.688L119.531 115.078L106.641 106.734L109.312 102.422L123.047 109.688ZM92.8594 109.781L106.594 102.516L109.312 106.781L96.375 115.172L92.8594 109.781Z" fill="black"/>
<defs>
<filter id="filter0_bi_269_524" x="-8.5" y="-10" width="129.615" height="129.615" filterUnits="userSpaceOnUse" color-interpolation-filters="sRGB">
<feFlood flood-opacity="0" result="BackgroundImageFix"/>
<feGaussianBlur in="BackgroundImageFix" stdDeviation="5"/>
<feComposite in2="SourceAlpha" operator="in" result="effect1_backgroundBlur_269_524"/>
<feBlend mode="normal" in="SourceGraphic" in2="effect1_backgroundBlur_269_524" result="shape"/>
<feColorMatrix in="SourceAlpha" type="matrix" values="0 0 0 0 0 0 0 0 0 0 0 0 0 0 0 0 0 0 127 0" result="hardAlpha"/>
<feOffset dx="3" dy="-3"/>
<feGaussianBlur stdDeviation="4"/>
<feComposite in2="hardAlpha" operator="arithmetic" k2="-1" k3="1"/>
<feColorMatrix type="matrix" values="0 0 0 0 1 0 0 0 0 1 0 0 0 0 1 0 0 0 0.35 0"/>
<feBlend mode="normal" in2="shape" result="effect2_innerShadow_269_524"/>
</filter>
</defs>
</svg>
