<svg width="28" height="28" viewBox="0 0 28 28" fill="none" xmlns="http://www.w3.org/2000/svg">
<rect width="28" height="28" rx="14" fill="#E6E6E6"/>
<path d="M14.6876 18.9001C9.42598 18.9001 6.42485 15.2214 6.2998 9.1001H8.93541C9.02198 13.593 10.965 15.4961 12.5041 15.8885V9.1001H14.9858V12.975C16.5056 12.8082 18.1023 11.0424 18.641 9.1001H21.1227C20.9197 10.1075 20.5151 11.0613 19.9341 11.9018C19.3532 12.7424 18.6084 13.4517 17.7464 13.9854C18.7086 14.473 19.5585 15.1631 20.24 16.0103C20.9214 16.8575 21.419 17.8424 21.6998 18.9001H18.968C18.7159 17.9814 18.2036 17.1591 17.4952 16.5361C16.7868 15.9131 15.9138 15.5172 14.9858 15.398V18.9001H14.6876Z" fill="#1A1A1A"/>
</svg>
