<svg width="240" height="240" viewBox="0 0 240 240" fill="none" xmlns="http://www.w3.org/2000/svg">
<g clip-path="url(#clip0_124_496)">
<rect width="240" height="240" fill="#E4FF97"/>
<path d="M0 3.9165C0 1.70736 1.79086 -0.0834961 4 -0.0834961H236C238.209 -0.0834961 240 1.70737 240 3.9165V235.917C240 238.126 238.209 239.917 236 239.917H4C1.79086 239.917 0 238.126 0 235.917V3.9165Z" fill="black" fill-opacity="0.06"/>
<path d="M112.006 111.923C112.006 113.255 111.539 114.387 110.606 115.318C109.672 116.25 108.54 116.717 107.21 116.719C105.88 116.721 104.748 116.254 103.814 115.318C102.88 114.383 102.414 113.251 102.414 111.923C102.414 110.595 102.88 109.463 103.814 108.527C104.748 107.591 105.88 107.124 107.21 107.126C108.54 107.129 109.672 107.595 110.606 108.527C111.539 109.458 112.006 110.59 112.006 111.923ZM137.586 121.515V132.706H102.414V127.91L110.407 119.916L114.404 123.913L127.194 111.123L137.586 121.515ZM139.984 103.929H100.015C99.798 103.929 99.6104 104.008 99.4527 104.166C99.2949 104.323 99.2161 104.511 99.2161 104.728V135.105C99.2161 135.322 99.2949 135.51 99.4527 135.667C99.6104 135.825 99.798 135.904 100.015 135.904H139.984C140.202 135.904 140.389 135.825 140.547 135.667C140.705 135.51 140.784 135.322 140.784 135.105V104.728C140.784 104.511 140.705 104.323 140.547 104.166C140.389 104.008 140.202 103.929 139.984 103.929ZM143.981 104.728V135.105C143.981 136.205 143.59 137.146 142.808 137.928C142.025 138.71 141.084 139.101 139.984 139.101H100.015C98.9155 139.101 97.9744 138.71 97.192 137.928C96.4097 137.146 96.0186 136.205 96.0186 135.105V104.728C96.0186 103.628 96.4097 102.687 97.192 101.905C97.9744 101.123 98.9155 100.731 100.015 100.731H139.984C141.084 100.731 142.025 101.123 142.808 101.905C143.59 102.687 143.981 103.628 143.981 104.728Z" fill="black" fill-opacity="0.15"/>
</g>
<defs>
<clipPath id="clip0_124_496">
<rect width="240" height="240" fill="white"/>
</clipPath>
</defs>
</svg>
