<svg width="160" height="160" viewBox="0 0 160 160" fill="none" xmlns="http://www.w3.org/2000/svg">
<g clip-path="url(#clip0_112_412)">
<rect width="160" height="160" fill="#D3A27E"/>
<path d="M0 4C0 1.79086 1.79086 0 4 0H156C158.209 0 160 1.79086 160 4V156C160 158.209 158.209 160 156 160H4C1.79086 160 0 158.209 0 156V4Z" fill="black" fill-opacity="0.06"/>
<path d="M72.0061 72.0062C72.0061 73.3385 71.5392 74.4704 70.6056 75.4019C69.6719 76.3335 68.54 76.8003 67.2098 76.8025C65.8797 76.8046 64.7477 76.3377 63.8141 75.4019C62.8804 74.4661 62.4136 73.3342 62.4136 72.0062C62.4136 70.6782 62.8804 69.5463 63.8141 68.6105C64.7477 67.6746 65.8797 67.2078 67.2098 67.2099C68.54 67.2121 69.6719 67.6789 70.6056 68.6105C71.5392 69.542 72.0061 70.6739 72.0061 72.0062ZM97.5861 81.5987V92.79H62.4136V87.9937L70.4073 80L74.4042 83.9968L87.1942 71.2068L97.5861 81.5987ZM99.9842 64.0124H60.0154C59.798 64.0124 59.6104 64.0913 59.4527 64.2491C59.2949 64.4068 59.2161 64.5944 59.2161 64.8118V95.1881C59.2161 95.4055 59.2949 95.5931 59.4527 95.7508C59.6104 95.9086 59.798 95.9875 60.0154 95.9875H99.9842C100.202 95.9875 100.389 95.9086 100.547 95.7508C100.705 95.5931 100.784 95.4055 100.784 95.1881V64.8118C100.784 64.5944 100.705 64.4068 100.547 64.2491C100.389 64.0913 100.202 64.0124 99.9842 64.0124ZM103.981 64.8118V95.1881C103.981 96.288 103.59 97.2292 102.808 98.0115C102.025 98.7938 101.084 99.185 99.9842 99.185H60.0154C58.9155 99.185 57.9744 98.7938 57.192 98.0115C56.4097 97.2292 56.0186 96.288 56.0186 95.1881V64.8118C56.0186 63.7119 56.4097 62.7707 57.192 61.9884C57.9744 61.2061 58.9155 60.8149 60.0154 60.8149H99.9842C101.084 60.8149 102.025 61.2061 102.808 61.9884C103.59 62.7707 103.981 63.7119 103.981 64.8118Z" fill="black" fill-opacity="0.15"/>
</g>
<defs>
<clipPath id="clip0_112_412">
<rect width="160" height="160" fill="white"/>
</clipPath>
</defs>
</svg>
